<svg width="138" height="28" viewBox="0 0 138 28" fill="none" xmlns="http://www.w3.org/2000/svg">
<path d="M28 13.9984C28.0003 16.7674 27.1795 19.4743 25.6414 21.7768C24.1032 24.0793 21.9168 25.874 19.3587 26.9338C16.8006 27.9937 13.9856 28.2712 11.2698 27.7312C8.55399 27.1912 6.05928 25.858 4.10117 23.9002C2.14307 21.9423 0.809518 19.4478 0.269161 16.732C-0.271196 14.0163 0.00591145 11.2013 1.06544 8.64302C2.12497 6.08476 3.91933 3.89815 6.22161 2.3597C8.52389 0.821249 11.2307 6.67572e-05 13.9997 0L13.9998 7.77602C12.7688 7.77605 11.5655 8.14112 10.542 8.82507C9.51844 9.50902 8.72072 10.4811 8.24968 11.6185C7.77865 12.7558 7.65546 14.0072 7.89568 15.2146C8.13591 16.4219 8.72877 17.5309 9.59928 18.4013C10.4698 19.2717 11.5789 19.8644 12.7862 20.1045C13.9936 20.3445 15.2451 20.2212 16.3823 19.75C17.5196 19.2788 18.4916 18.481 19.1754 17.4573C19.8592 16.4337 20.2241 15.2303 20.224 13.9993L28 13.9984Z" fill="#03FF37"/>
<rect x="14.001" y="13.999" width="6.22322" height="6.22322" transform="rotate(-90 14.001 13.999)" fill="white"/>
<rect x="20.2239" y="7.77582" width="6.22322" height="6.22322" transform="rotate(-90 20.2239 7.77582)" fill="white"/>
<path d="M37.4167 13.7761C37.4167 7.96777 41.3267 3.51944 47.6733 3.51944C53.255 3.51944 56.9383 6.57944 57.5333 11.5094H53C52.5467 8.87444 50.45 7.4861 47.73 7.4861C44.245 7.4861 41.95 9.66777 41.95 13.7761C41.95 17.9128 44.245 20.0944 47.73 20.0944C50.45 20.0944 52.5467 18.6778 53 16.0428H57.5333C56.9383 21.0011 53.255 24.0611 47.6733 24.0611C41.3267 24.0611 37.4167 19.6128 37.4167 13.7761ZM67.4511 3.80277C72.7778 3.80277 78.3311 5.1911 78.3311 13.7761C78.3311 22.3894 72.7778 23.7778 67.4511 23.7778L60.0844 23.7778V3.80277L67.4511 3.80277ZM67.4511 19.8111C70.9928 19.8111 73.7978 19.5278 73.7978 13.7761C73.7978 8.05277 70.9928 7.76944 67.4511 7.76944H64.6178V19.8111H67.4511ZM80.6018 16.3544V3.80277L85.1351 3.80277V14.3428C85.1351 17.9128 85.4468 20.0944 89.6118 20.0944C93.7768 20.0944 94.1168 17.9128 94.1168 14.3428V3.80277L98.6501 3.80277V16.3544C98.6501 21.3411 95.5334 24.0611 89.6118 24.0611C83.6901 24.0611 80.6018 21.3411 80.6018 16.3544ZM118.796 18.2811C118.796 21.7094 116.388 24.0611 110.239 24.0611C103.043 24.0611 100.351 21.1144 100.351 16.0711H104.884C104.884 19.1311 106.414 20.0944 110.381 20.0944C113.299 20.0944 114.263 19.4144 114.263 18.3378C114.263 16.8928 111.826 16.2411 108.908 15.2494C104.686 13.8328 101.258 12.6994 101.258 8.78944C101.258 5.38944 103.949 3.51944 109.106 3.51944C115.226 3.51944 117.974 6.6361 117.974 10.6028H113.441C113.441 8.16611 111.571 7.4861 109.106 7.4861C107.066 7.4861 105.791 7.93944 105.791 8.95944C105.791 9.8661 106.273 10.2061 109.474 11.2828C113.158 12.5294 118.796 14.1161 118.796 18.2811ZM136.097 3.80277V7.76944H129.58V23.7778H125.047V7.76944H118.502V3.80277L136.097 3.80277Z" fill="white"/>
</svg>
